Coordinates
nRows=4
nColumns=38

# SIMM Motion File Header:
name Coordinates
datacolumns 38
datarows 4
otherdata 1
range 0.39191700000000002000 0.39491700000000002000

Units are S.I. units (second, meters, Newtons, ...)
Angles are in degrees.

endheader
time	pelvis_tilt	pelvis_list	pelvis_rotation	pelvis_tx	pelvis_ty	pelvis_tz	hip_flexion_r	hip_adduction_r	hip_rotation_r	knee_angle_r	ankle_angle_r	subtalar_angle_r	mtp_angle_r	hip_flexion_l	hip_adduction_l	hip_rotation_l	knee_angle_l	ankle_angle_l	subtalar_angle_l	mtp_angle_l	lumbar_extension	lumbar_bending	lumbar_rotation	arm_flex_r	arm_add_r	arm_rot_r	elbow_flex_r	pro_sup_r	wrist_flex_r	wrist_dev_r	arm_flex_l	arm_add_l	arm_rot_l	elbow_flex_l	pro_sup_l	wrist_flex_l	wrist_dev_l
      0.39191700000000002000	     -5.19837043077741880000	      2.75954403588025830000	     -2.30523623890124710000	      0.80788003834165001000	      0.97034685941302523000	     -0.35484324361992747000	    -23.39496444172375400000	     -0.27427962780416043000	     -0.26510959587959410000	    -57.42447346480845700000	    -21.20141790432586900000	      0.00000000000002836054	     -0.00000000000004144868	     38.33648402107075300000	      4.26251282476613550000	     -0.96342225088761357000	    -23.25861846423964300000	      4.25905417913659610000	     -0.00000000000001058150	     -0.00000000000000410291	     -7.88170988350518800000	     -5.62573907820059290000	     10.75710849040658700000	      7.95110677496172610000	    -30.77102305307520800000	     26.65884061547736300000	    128.45005366804540000000	     82.37696628149313900000	      0.00000000000000474941	      0.00000000000000374764	    -56.09440919215281000000	    -36.57328221012733800000	    -43.46811722917095700000	    131.57007604738101000000	     75.85342629355788800000	      0.00000000000002209082	     -0.00000000000001510628
      0.39291700000000002000	     -5.11893517431263230000	      2.71650498092309300000	     -2.19652366616380590000	      0.80801322149202881000	      0.97000178688149330000	     -0.35475153163193029000	    -23.29878542426018500000	     -0.15564662156488518000	     -0.27361750045095434000	    -58.31109099200433100000	    -21.04899118490032700000	      0.00000000000002850662	     -0.00000000000004159485	     38.07481584551150900000	      4.27482786231680030000	     -0.94274852719389579000	    -22.87185191423776200000	      4.12910418736196580000	     -0.00000000000001062270	     -0.00000000000000408499	     -7.97953206547575360000	     -5.63602653864486670000	     10.61353520854357600000	      7.76792462538248960000	    -30.80898255812713100000	     26.68141847144362100000	    128.32684036764175000000	     82.31127198557814500000	      0.00000000000000477440	      0.00000000000000382029	    -56.03701576690561100000	    -36.70841163737100700000	    -43.72025383023313300000	    131.77169947811061000000	     75.82189750960198200000	      0.00000000000002219244	     -0.00000000000001520846
      0.39391700000000002000	     -5.03806301073054110000	      2.67476129952921000000	     -2.08690186131777630000	      0.80814231293849204000	      0.96965005606353127000	     -0.35466286214990056000	    -23.20115263803511900000	     -0.03947817564619015400	     -0.28906490354464071000	    -59.19933440727584200000	    -20.89449089652634200000	      0.00000000000002865212	     -0.00000000000004174008	     37.81481208385209700000	      4.28845995631387120000	     -0.92250896776396007000	    -22.50174739113741400000	      3.99241772657789660000	     -0.00000000000001066398	     -0.00000000000000406704	     -8.07950113918843020000	     -5.64705233086631250000	     10.46906263915225400000	      7.58120267666780730000	    -30.84676197728686700000	     26.70093747565893200000	    128.20084714282046000000	     82.24080474461537400000	      0.00000000000000479939	      0.00000000000000389385	    -55.97494689175093900000	    -36.84837015504583500000	    -43.96861072173990700000	    131.97177820411326000000	     75.79723148816795200000	      0.00000000000002229505	     -0.00000000000001531130
      0.39491700000000002000	     -4.95563910847193420000	      2.63438809407707850000	     -1.97639943669884330000	      0.80826750595824426000	      0.96929191937024695000	     -0.35457739070047245000	    -23.10230714817565800000	      0.07406314992107448900	     -0.31125391883315912000	    -60.08889009208689900000	    -20.73782093038938600000	      0.00000000000002880146	     -0.00000000000004188545	     37.55627344637884600000	      4.30352540434757010000	     -0.90245740830640253000	    -22.14827111268218100000	      3.85084369312873690000	     -0.00000000000001070254	     -0.00000000000000404749	     -8.18172468564466730000	     -5.65884111857258890000	     10.32376918621051800000	      7.39088894403015130000	    -30.88432455860255400000	     26.71730055067190100000	    128.07220433421963000000	     82.16562615865878200000	      0.00000000000000482462	      0.00000000000000396672	    -55.90807771638358800000	    -36.99327544363761400000	    -44.21299626103649400000	    132.17018452969921000000	     75.77937485246508200000	      0.00000000000002239952	     -0.00000000000001541350
